<svg width="11" height="10" viewBox="0 0 11 10" fill="none" xmlns="http://www.w3.org/2000/svg">
<path d="M4.7111 0.37192C5.83315 0.37192 6.74897 1.25568 6.80039 2.36503L6.80266 2.46349V2.90349C6.80266 3.09884 6.6443 3.2572 6.44896 3.2572C6.26989 3.2572 6.1219 3.12413 6.09848 2.95149L6.09526 2.90349V2.46349C6.09526 1.72642 5.51895 1.12378 4.79242 1.08168L4.7111 1.07933L2.41202 1.07933C1.67535 1.07933 1.07278 1.65569 1.03068 2.38217L1.02833 2.46349L1.02833 7.71245C1.02833 8.44946 1.60459 9.05215 2.33074 9.09426L2.41202 9.09661H4.71581C5.45027 9.09661 6.05094 8.52238 6.09291 7.79864L6.09526 7.71764V7.27291C6.09526 7.07757 6.25361 6.91921 6.44896 6.91921C6.62803 6.91921 6.77601 7.05227 6.79943 7.22492L6.80266 7.27291V7.71764C6.80266 8.83592 5.92227 9.74887 4.8169 9.80161L4.71581 9.80401H2.41202C1.29034 9.80401 0.374614 8.92018 0.323203 7.81089L0.320927 7.71245L0.320927 2.46349C0.320927 1.34151 1.2046 0.425618 2.3136 0.374197L2.41202 0.37192L4.7111 0.37192ZM8.48161 3.42832L8.52136 3.46248L9.90221 4.83721C9.91465 4.84955 9.92556 4.8621 9.93556 4.87539L9.90221 4.83721C9.91662 4.85155 9.92953 4.86683 9.94095 4.88284C9.94902 4.89404 9.95645 4.90588 9.96318 4.91816C9.96441 4.92055 9.96565 4.92289 9.96687 4.92525C9.97283 4.93655 9.97814 4.94828 9.9828 4.96033C9.9847 4.96561 9.98662 4.97094 9.9884 4.97631C9.99184 4.98623 9.99473 4.99644 9.99717 5.00682C9.99831 5.01237 9.99946 5.01787 10.0005 5.0234C10.0024 5.03304 10.0038 5.04298 10.0048 5.05305C10.0053 5.06006 10.0058 5.067 10.0061 5.07394C10.0064 5.07859 10.0065 5.08325 10.0065 5.08792L10.0061 5.10128C10.0058 5.10854 10.0053 5.11579 10.0046 5.12302L10.0065 5.08792C10.0065 5.11001 10.0045 5.13163 10.0006 5.1526C9.99946 5.15784 9.99831 5.16337 9.99702 5.16887C9.99464 5.1798 9.99162 5.19039 9.98813 5.20077C9.98633 5.20559 9.98457 5.21047 9.9827 5.21532C9.97833 5.22706 9.97323 5.23842 9.96756 5.24944C9.96615 5.25193 9.96467 5.25472 9.96315 5.2575C9.94691 5.28736 9.92658 5.31436 9.90291 5.33803L9.90226 5.33849L8.5214 6.71369C8.38299 6.85154 8.15903 6.85108 8.02119 6.71266C7.89587 6.58683 7.88486 6.39031 7.98789 6.25205L8.02221 6.21245L8.79519 5.4412L3.97421 5.44162C3.77887 5.44162 3.62051 5.28327 3.62051 5.08792C3.62051 4.90885 3.75357 4.76087 3.92622 4.73745L3.97421 4.73422L8.79614 4.73379L8.02226 3.96381C7.89641 3.83851 7.88455 3.64204 7.98698 3.50334L8.02114 3.4636C8.14644 3.33774 8.34291 3.32589 8.48161 3.42832Z" fill="#EA7C69"/>
</svg>
