<svg width="9" height="10" viewBox="0 0 9 10" fill="none" xmlns="http://www.w3.org/2000/svg">
<path d="M3.4097 0.371619C4.00864 -0.10423 4.8481 -0.123094 5.46543 0.315026L5.54136 0.371619L8.41296 2.66881C8.72893 2.91357 8.92276 3.27718 8.95577 3.67285L8.96049 3.76764V7.59189C8.96049 8.57754 8.18187 9.37927 7.20612 9.43115H6.26763C5.81913 9.42219 5.45647 9.0732 5.42345 8.63461L5.41874 8.56811L5.41874 7.21979C5.41874 7.07312 5.3098 6.95098 5.16407 6.92692L5.12163 6.92221H3.86197C3.71153 6.92692 3.58891 7.03539 3.57005 7.17688L3.56533 7.21979V8.56387C3.56533 8.59169 3.56014 8.6247 3.5559 8.64828L3.55118 8.65819L3.546 8.69073C3.48988 9.09206 3.15975 9.39813 2.74946 9.4269L2.68815 9.43115H1.84397C0.858321 9.43115 0.0518765 8.65819 0 7.68621L0 3.76764C0.00424444 3.36631 0.17921 2.99374 0.471605 2.73436L3.4097 0.371619ZM5.13106 0.885668C4.77264 0.597989 4.26331 0.584313 3.88602 0.833792L3.81481 0.885668L0.947454 3.197C0.782864 3.31915 0.683827 3.50307 0.660247 3.69643L0.655059 3.77189L0.655059 7.59189C0.655059 8.21912 1.14553 8.73317 1.76852 8.7709H2.68815C2.7919 8.7709 2.8815 8.70063 2.89518 8.60159L2.90509 8.5167L2.9098 8.49265V7.21979C2.9098 6.71517 3.29652 6.30488 3.7917 6.26668H5.12163C5.62577 6.26668 6.03607 6.65387 6.07427 7.14905L6.07427 8.56811C6.07427 8.66715 6.14501 8.75251 6.23933 8.7709H7.11604C7.74799 8.7709 8.26204 8.28562 8.29977 7.66735L8.30496 7.59189V3.77189C8.29977 3.56957 8.21535 3.38046 8.06916 3.23945L8.00785 3.1871L5.13106 0.885668Z" fill="#EA7C69"/>
</svg>
