<svg width="9" height="10" viewBox="0 0 9 10" fill="none" xmlns="http://www.w3.org/2000/svg">
<path d="M5.6098 8.4296C5.74967 8.54351 5.77184 8.75062 5.65931 8.89221C5.57612 8.99688 5.48 9.09059 5.37813 9.16739C5.03498 9.43664 4.5987 9.55874 4.16544 9.50713C3.73178 9.45547 3.33621 9.23398 3.06626 8.89099C2.9544 8.74886 2.97754 8.54185 3.11794 8.42862C3.25834 8.31539 3.46284 8.33881 3.5747 8.48094C3.73751 8.68779 3.97745 8.82214 4.24141 8.85359C4.50575 8.88507 4.77166 8.81066 4.98473 8.64354C5.04756 8.59613 5.10403 8.54108 5.15279 8.47972C5.26532 8.33813 5.46993 8.31569 5.6098 8.4296ZM1.15038 3.38774L1.15619 3.10674C1.16034 2.98655 1.16676 2.87498 1.17619 2.76579C1.31753 1.23949 2.77436 0.0866232 4.36327 0.0866232H4.39691C5.98495 0.0866232 7.44221 1.23868 7.58837 2.76787C7.59676 2.86507 7.60036 2.95142 7.60145 3.07285L7.60187 3.44436C7.60222 3.47821 7.6028 3.50797 7.60366 3.53572L7.60802 3.62826L7.62904 3.71651C7.69539 3.96228 7.81201 4.19206 7.97173 4.39153L8.04279 4.47512L8.07189 4.51248C8.26345 4.79875 8.37287 5.13186 8.38851 5.49061L8.38805 5.68082C8.37468 6.1057 8.21869 6.51606 7.93286 6.85801C7.5543 7.25977 7.04131 7.50936 6.49612 7.55954C5.08822 7.71242 3.66775 7.71242 2.26377 7.55994C1.71482 7.50714 1.20335 7.25828 0.808236 6.8411C0.516874 6.48589 0.361997 6.03865 0.371659 5.58668L0.372058 5.47432C0.388891 5.13068 0.49764 4.79788 0.686908 4.51037L0.718586 4.46962C0.939633 4.22728 1.09076 3.9307 1.15633 3.61095L1.14923 3.63967L1.15038 3.38774ZM4.39691 0.744676H4.36327C3.09075 0.744676 1.93132 1.66219 1.82362 2.82513C1.81811 2.88903 1.81371 2.95496 1.81028 3.02434L1.8027 3.24429L1.79963 3.67783L1.79284 3.74471C1.70325 4.18157 1.49709 4.58617 1.19621 4.91603L1.21944 4.88909L1.17789 4.95787C1.10004 5.09813 1.04982 5.25046 1.02998 5.40078L1.02174 5.49061L1.02167 5.59375C1.0153 5.89408 1.11678 6.18713 1.2926 6.40285C1.56383 6.68837 1.93075 6.86689 2.32918 6.90524C3.69099 7.05311 5.06498 7.05312 6.43199 6.90472C6.82612 6.86841 7.19278 6.69002 7.44926 6.4187C7.64335 6.1859 7.74593 5.89191 7.73843 5.58251L7.73882 5.50543C7.72886 5.28303 7.65801 5.06736 7.53366 4.88152L7.54085 4.89348L7.47583 4.81722C7.25163 4.5405 7.08876 4.21953 6.99808 3.87548L6.96748 3.74542L6.9614 3.70171C6.95681 3.63787 6.95414 3.58113 6.95272 3.5129L6.95144 3.08626C6.95057 2.97777 6.94763 2.90474 6.94103 2.82819C6.82957 1.66214 5.66906 0.744676 4.39691 0.744676Z" fill="#EA7C69"/>
</svg>
